PathFileType	4	(X/Y/Z)	/Users/itak/Documents/Research/Walk-IL/dataset/trc/00570_00009.trc
DataRate	CameraRate	NumFrames	NumMarkers	Units	OrigDataRate	OrigDataStartFrame	OrigNumFrames
100.000000	100.000000	4	53	mm	100.000000	65	526
Frame#	Time	RPSI			LPSI			L3			STRN			T10			C7			CLAV			RBAK			LBAK			LSHO			LUPA			LAEL			LAOL			LWTS			LWPS			LFRA			LIFD			LHPS			LHTS			RSHO			RUPA			RAEL			RAOL			RWTS			RWPS			RFRA			RIFD			RHTS			RHPS			RBHD			LFHD			RFHD			LBHD			LHIP			RHIP			RASI			LASI			LKNE			LTHI			LANK			LTIP			LTOE			LMT1			LMT5			LHEE			RKNE			RTHI			RANK			RTIP			RTOE			RMT1			RMT5			RHEE			
		X1	Y1	Z1	X2	Y2	Z2	X3	Y3	Z3	X4	Y4	Z4	X5	Y5	Z5	X6	Y6	Z6	X7	Y7	Z7	X8	Y8	Z8	X9	Y9	Z9	X10	Y10	Z10	X11	Y11	Z11	X12	Y12	Z12	X13	Y13	Z13	X14	Y14	Z14	X15	Y15	Z15	X16	Y16	Z16	X17	Y17	Z17	X18	Y18	Z18	X19	Y19	Z19	X20	Y20	Z20	X21	Y21	Z21	X22	Y22	Z22	X23	Y23	Z23	X24	Y24	Z24	X25	Y25	Z25	X26	Y26	Z26	X27	Y27	Z27	X28	Y28	Z28	X29	Y29	Z29	X30	Y30	Z30	X31	Y31	Z31	X32	Y32	Z32	X33	Y33	Z33	X34	Y34	Z34	X35	Y35	Z35	X36	Y36	Z36	X37	Y37	Z37	X38	Y38	Z38	X39	Y39	Z39	X40	Y40	Z40	X41	Y41	Z41	X42	Y42	Z42	X43	Y43	Z43	X44	Y44	Z44	X45	Y45	Z45	X46	Y46	Z46	X47	Y47	Z47	X48	Y48	Z48	X49	Y49	Z49	X50	Y50	Z50	X51	Y51	Z51	X52	Y52	Z52	X53	Y53	Z53	

66	0.65	-1222.050537109375	1012.112365722656	-77.48699188232422	-1220.566284179688	1015.965576171875	-211.1296539306641	-1217.203002929688	1101.707885742188	-148.6835174560547	-994.3428344726562	1293.89599609375	-162.2268676757812	-1234.694213867188	1226.521728515625	-148.8939666748047	-1192.299438476562	1502.260620117188	-139.9387512207031	-1015.779052734375	1404.788330078125	-161.6263885498047	-1256.965454101562	1375.879760742188	-49.55596160888672	-1231.01318359375	1447.901123046875	-228.912841796875	-1140.527587890625	1473.795043945312	-319.3175354003906	-1156.875610351562	1345.805419921875	-396.2536926269531	-1140.581665039062	1124.6220703125	-418.4601745605469	-1222.819458007812	1118.189331054688	-360.4652099609375	-1051.733276367188	880.3501586914062	-375.9943237304688	-1101.821166992188	858.5281982421875	-443.8123474121094	-1119.993896484375	1038.284912109375	-426.6581115722656	-1050.673583984375	722.4262084960938	-379.0870056152344	-1094.66455078125	798.84375	-436.6094055175781	-1038.28466796875	802.5664672851562	-399.1026306152344	-1124.32666015625	1465.197631835938	12.07766819000244	-1136.038208007812	1399.40234375	81.55558013916016	-1124.209594726562	1107.293701171875	120.0984649658203	-1179.444091796875	1089.643432617188	95.07224273681641	-989.4226684570312	888.2283325195312	68.57884979248047	-1030.713256835938	866.8014526367188	138.1494140625	-1111.706787109375	1051.882446289062	124.6727905273438	-982.8657836914062	714.1220703125	68.55677795410156	-961.00634765625	796.1221313476562	81.65116119384766	-1013.836853027344	792.5199584960938	133.9056091308594	-1123.081420898438	1683.575073242188	-87.51129150390625	-957.3296508789062	1708.111938476562	-210.2948150634766	-985.6156005859375	1707.05078125	-69.29313659667969	-1083.278442382812	1683.797607421875	-248.5998229980469	-1095.725463867188	935.95166015625	-343.1939392089844	-1100.515380859375	938.6563110351562	46.03890991210938	-1011.292541503906	969.4805297851562	-14.13032531738281	-1015.041259765625	958.8671875	-291.2889099121094	-1099.885864257812	491.6950073242188	-279.3521118164062	-1086.195190429688	655.2567138671875	-317.8807373046875	-1204.171875	27.13918876647949	-263.6588745117188	-1177.151000976562	250.8427734375	-278.2506103515625	-986.4140625	37.83608245849609	-230.9056396484375	-1054.814208984375	42.56212997436523	-188.1196441650391	-1083.96923828125	30.8229923248291	-293.2143859863281	-1265.75830078125	30.88468551635742	-199.8996276855469	-1103.029541015625	495.1952514648438	-6.866184234619141	-1067.605590820312	782.6370239257812	39.58133697509766	-1206.971435546875	37.35990905761719	-19.93189430236816	-1114.921508789062	354.0899963378906	-18.94411659240723	-988.7128295898438	37.15801620483398	-72.77175903320312	-1056.936157226562	32.3304557800293	-111.3629913330078	-1073.486450195312	40.34880447387695	-11.07449436187744	-1265.395874023438	24.73881149291992	-67.46462249755859	
67	0.66	-1221.899536132812	1012.230651855469	-77.95357513427734	-1220.390014648438	1016.11474609375	-211.6060028076172	-1216.90869140625	1101.870849609375	-149.1634063720703	-993.7357788085938	1293.79248046875	-162.6165313720703	-1234.2080078125	1226.689331054688	-149.3564147949219	-1191.46435546875	1502.36572265625	-140.3991088867188	-1015.09423828125	1404.708251953125	-162.1470642089844	-1256.259643554688	1376.078125	-49.99103927612305	-1230.249633789062	1448.090942382812	-229.3520965576172	-1139.725341796875	1473.818969726562	-319.7661743164062	-1156.328857421875	1345.890991210938	-396.6846008300781	-1140.503173828125	1124.641357421875	-418.90966796875	-1222.75927734375	1118.407470703125	-360.7965393066406	-1052.403076171875	880.076416015625	-376.5643615722656	-1102.624877929688	858.4415283203125	-444.3666076660156	-1120.212158203125	1038.289184570312	-427.148681640625	-1051.872192382812	722.0755004882812	-379.5185241699219	-1095.654296875	798.7272338867188	-437.1739501953125	-1039.10400390625	802.417724609375	-399.6972961425781	-1123.524536132812	1465.26806640625	11.59342575073242	-1135.292114257812	1399.47900390625	81.10630798339844	-1123.738159179688	1107.402709960938	119.78076171875	-1179.043334960938	1089.778686523438	94.79130554199219	-989.0418090820312	888.2984619140625	68.34104919433594	-1030.314697265625	866.861083984375	137.8049621582031	-1111.222534179688	1052.007080078125	124.2818374633789	-982.691650390625	714.1659545898438	68.41365051269531	-960.6815185546875	796.1453857421875	81.27479553222656	-1013.525512695312	792.5567626953125	133.5803375244141	-1122.101806640625	1683.587036132812	-87.97702026367188	-956.3814086914062	1708.027954101562	-210.7943725585938	-984.6312255859375	1706.975463867188	-69.78830718994141	-1082.331909179688	1683.783813476562	-249.0706024169922	-1095.072143554688	936.2509765625	-343.9649047851562	-1100.4365234375	938.6739501953125	45.62751007080078	-1011.300170898438	969.3644409179688	-14.60002899169922	-1014.815856933594	958.7894897460938	-291.689697265625	-1099.689453125	491.6510009765625	-279.6188354492188	-1086.083862304688	655.1533813476562	-318.2151794433594	-1204.173828125	27.14215087890625	-263.6593933105469	-1177.049682617188	250.8287963867188	-278.3685913085938	-986.4215698242188	37.8403434753418	-230.902099609375	-1054.813720703125	42.5610466003418	-188.1205902099609	-1083.974853515625	30.83267593383789	-293.2105102539062	-1265.74951171875	30.8970775604248	-199.8990173339844	-1102.999145507812	495.1995239257812	-7.028491020202637	-1067.597534179688	782.6474609375	39.2418098449707	-1206.978881835938	37.34751510620117	-19.91926383972168	-1114.818115234375	354.0733337402344	-19.14494323730469	-988.720703125	37.15912628173828	-72.79558563232422	-1056.940551757812	32.32111740112305	-111.3721618652344	-1073.489501953125	40.35394668579102	-11.07726383209229	-1265.41357421875	24.70687294006348	-67.44140625	
68	0.67	-1221.73193359375	1012.351745605469	-78.44896697998047	-1220.206909179688	1016.259704589844	-212.1114654541016	-1216.600830078125	1102.038940429688	-149.6643676757812	-993.1289672851562	1293.6650390625	-163.0259857177734	-1233.714721679688	1226.86083984375	-149.8388061523438	-1190.592407226562	1502.478881835938	-140.8761596679688	-1014.365966796875	1404.623291015625	-162.6795196533203	-1255.524536132812	1376.288330078125	-50.44387435913086	-1229.454956054688	1448.282836914062	-229.8166351318359	-1138.886596679688	1473.838989257812	-320.2305297851562	-1155.74560546875	1345.989135742188	-397.1384582519531	-1140.3798828125	1124.661376953125	-419.3731994628906	-1222.660400390625	1118.630493164062	-361.1520690917969	-1052.990966796875	879.8201293945312	-377.1055603027344	-1103.318359375	858.3536987304688	-444.8942260742188	-1120.395629882812	1038.304443359375	-427.6523742675781	-1052.967163085938	721.7268676757812	-379.9280700683594	-1096.521728515625	798.6075439453125	-437.7025451660156	-1039.819580078125	802.27099609375	-400.2699279785156	-1122.688598632812	1465.3330078125	11.09416198730469	-1134.522827148438	1399.56396484375	80.637451171875	-1123.252563476562	1107.510986328125	119.4594573974609	-1178.595947265625	1089.909057617188	94.46211242675781	-988.63134765625	888.373046875	68.07461547851562	-1029.916259765625	866.9364013671875	137.4715118408203	-1110.802001953125	1052.126831054688	123.9793319702148	-982.4807739257812	714.2322387695312	68.24002838134766	-960.3069458007812	796.195556640625	80.84195709228516	-1013.130981445312	792.5946044921875	133.1777496337891	-1121.094848632812	1683.585205078125	-88.46863555908203	-955.4067993164062	1707.949829101562	-211.3210296630859	-983.630615234375	1706.899169921875	-70.29689025878906	-1081.34130859375	1683.761108398438	-249.5539398193359	-1094.576049804688	936.444580078125	-344.6018371582031	-1100.359741210938	938.6929931640625	45.19576263427734	-1011.332763671875	969.2308959960938	-15.12412166595459	-1014.591613769531	958.658203125	-292.1042175292969	-1099.479736328125	491.603271484375	-279.927490234375	-1085.981079101562	655.03759765625	-318.5696716308594	-1204.174682617188	27.14240074157715	-263.6596069335938	-1176.96337890625	250.8093872070312	-278.4851684570312	-986.4284057617188	37.84513092041016	-230.9007720947266	-1054.814453125	42.55936050415039	-188.1220245361328	-1083.980834960938	30.84177017211914	-293.2080383300781	-1265.744262695312	30.90617179870605	-199.8993072509766	-1102.981689453125	495.2073059082031	-7.191954135894775	-1067.605834960938	782.6582641601562	38.88008117675781	-1206.990234375	37.3391227722168	-19.9109935760498	-1114.696899414062	354.0510559082031	-19.37559700012207	-988.7278442382812	37.16063690185547	-72.81723785400391	-1056.94677734375	32.31882095336914	-111.3981552124023	-1073.4912109375	40.35976409912109	-11.07896900177002	-1265.428344726562	24.67771530151367	-67.42456817626953	
69	0.68	-1221.544067382812	1012.476440429688	-78.97179412841797	-1220.017944335938	1016.399841308594	-212.6445007324219	-1216.275512695312	1102.210693359375	-150.1887969970703	-992.5140991210938	1293.52294921875	-163.4688110351562	-1233.213623046875	1227.0400390625	-150.3407897949219	-1189.684204101562	1502.60107421875	-141.3689117431641	-1013.599060058594	1404.53076171875	-163.2209167480469	-1254.762084960938	1376.511108398438	-50.91619110107422	-1228.630493164062	1448.475341796875	-230.3062896728516	-1138.018188476562	1473.856811523438	-320.713134765625	-1155.126953125	1346.094360351562	-397.6133422851562	-1140.2119140625	1124.67919921875	-419.8441467285156	-1222.515502929688	1118.8564453125	-361.5317687988281	-1053.489013671875	879.5822143554688	-377.6134338378906	-1103.894897460938	858.26025390625	-445.3928527832031	-1120.539794921875	1038.323974609375	-428.1628723144531	-1053.9599609375	721.3751220703125	-380.3126525878906	-1097.265380859375	798.484130859375	-438.1970825195312	-1040.432983398438	802.1211547851562	-400.8175964355469	-1121.817138671875	1465.38916015625	10.58130741119385	-1133.729370117188	1399.654541015625	80.14901733398438	-1122.752807617188	1107.617309570312	119.1295776367188	-1178.109497070312	1090.035278320312	94.09676361083984	-988.2062377929688	888.4425048828125	67.77462005615234	-1029.518676757812	867.025146484375	137.1476898193359	-1110.4404296875	1052.236572265625	123.7624206542969	-982.2125244140625	714.3135375976562	68.00639343261719	-959.9276733398438	796.2596435546875	80.37629699707031	-1012.660888671875	792.633056640625	132.7069244384766	-1120.056762695312	1683.567138671875	-88.98414611816406	-954.4037475585938	1707.876831054688	-211.8753662109375	-982.6051025390625	1706.825317382812	-70.81908416748047	-1080.309692382812	1683.729736328125	-250.0509796142578	-1094.26611328125	936.5049438476562	-345.0986633300781	-1100.2822265625	938.71484375	44.74063491821289	-1011.372375488281	969.0868530273438	-15.68276405334473	-1014.376037597656	958.4811401367188	-292.5453796386719	-1099.269897460938	491.5489196777344	-280.2677001953125	-1085.883056640625	654.919677734375	-318.9406127929688	-1204.173583984375	27.13922500610352	-263.6590881347656	-1176.89111328125	250.7811737060547	-278.6024780273438	-986.4342651367188	37.85024642944336	-230.9024047851562	-1054.816650390625	42.55701065063477	-188.1238861083984	-1083.98583984375	30.84918594360352	-293.2068481445312	-1265.74267578125	30.91116333007812	-199.9008178710938	-1102.966552734375	495.2168579101562	-7.361932754516602	-1067.620361328125	782.669189453125	38.48118591308594	-1207.007690429688	37.33556747436523	-19.90348434448242	-1114.555053710938	354.0209350585938	-19.63471221923828	-988.7343139648438	37.16263580322266	-72.83781433105469	-1056.956298828125	32.32551956176758	-111.4295959472656	-1073.492919921875	40.36483764648438	-11.07917308807373	-1265.441284179688	24.65077781677246	-67.41350555419922	
